<?xml version="1.0" standalone="no"?>
<!DOCTYPE svg PUBLIC "-//W3C//DTD SVG 20010904//EN"
 "http://www.w3.org/TR/2001/REC-SVG-20010904/DTD/svg10.dtd">
<svg version="1.0" xmlns="http://www.w3.org/2000/svg"
 width="700.000000pt" height="700.000000pt" viewBox="0 0 700.000000 700.000000"
 preserveAspectRatio="xMidYMid meet">
<metadata>
Created by potrace 1.11, written by Peter Selinger 2001-2013
</metadata>
<g transform="translate(0.000000,700.000000) scale(0.100000,-0.100000)"
fill="#000000" stroke="none">
<path d="M1817 6564 c-1 -1 -47 -4 -102 -8 -135 -8 -221 -21 -338 -52 -165
-43 -359 -124 -462 -194 -22 -14 -47 -29 -55 -32 -21 -8 -162 -118 -238 -186
-89 -80 -224 -239 -299 -354 -105 -160 -213 -393 -239 -513 -2 -11 -10 -42
-19 -70 -68 -232 -80 -562 -30 -860 38 -222 153 -512 281 -705 101 -153 121
-176 429 -495 128 -132 259 -268 291 -301 32 -34 159 -165 281 -290 122 -126
261 -270 310 -320 185 -191 555 -573 639 -661 49 -50 193 -198 320 -330 128
-131 260 -267 294 -303 201 -211 358 -364 397 -387 128 -74 283 -82 408 -20
36 17 122 80 135 98 3 4 120 126 261 270 141 145 277 287 304 314 26 28 167
173 314 324 146 151 289 298 316 326 28 29 111 115 185 192 224 231 640 660
725 748 557 574 600 619 672 713 137 180 230 358 299 571 43 131 48 149 60
221 3 19 8 38 9 41 2 3 7 28 10 55 4 27 9 60 11 74 10 50 11 347 2 430 -63
595 -372 1106 -859 1423 -187 122 -428 216 -645 252 -129 21 -168 24 -309 24
-142 0 -129 0 -215 -11 -92 -11 -95 -12 -200 -33 -268 -54 -573 -204 -810
-396 -88 -71 -421 -397 -428 -419 -8 -24 -37 -2 -148 111 -155 158 -268 268
-296 287 -13 9 -34 27 -48 39 -37 35 -204 144 -291 192 -173 93 -384 167 -585
205 -46 9 -332 34 -337 30z"/>
</g>
</svg>
